name C:\Users\tom_v\MusculoskeletalSpecialization\ResultsSprinting\Case_2\motion.mot
datacolumns 32
datarows 10
range 0.19480788 0.22987329
endheader 
time	pelvis_tilt	pelvis_list	pelvis_rotation	pelvis_tx	pelvis_ty	pelvis_tz	hip_flexion_r	hip_adduction_r	hip_rotation_r	knee_angle_r	ankle_angle_r	subtalar_angle_r	mtp_angle_r	hip_flexion_l	hip_adduction_l	hip_rotation_l	knee_angle_l	ankle_angle_l	subtalar_angle_l	mtp_angle_l	lumbar_extension	lumbar_bending	lumbar_rotation	arm_flex_r	arm_add_r	arm_rot_r	elbow_flex_r	arm_flex_l	arm_add_l	arm_rot_l	elbow_flex_l	
          0.19480788	         -7.20679692	          3.35383968	         -5.60566748	          1.92344103	          0.99017708	          0.00821681	         14.97339972	         -7.14018782	         -3.90679871	        -55.36223188	        -11.41750292	          5.24939487	         -0.37307733	         27.22010530	          4.28638207	         -9.11127682	         -8.87859415	          1.36564857	          1.01335407	         -1.23097804	        -12.72878158	         -7.23598101	         11.60429590	          2.81185480	        -16.59655257	        -11.66186328	         12.98947829	         -0.69040459	        -14.64496485	         -6.87371238	         19.92098795	
          0.19870403	         -7.57816345	          2.79486317	         -4.06105263	          1.96243213	          0.98769637	          0.00833274	         16.77150926	         -6.52507296	         -4.75852997	        -56.54237732	         -9.89866054	          6.01725525	         -2.14079587	         25.57306270	          4.22438242	         -8.40084066	         -7.74764415	         -1.78087097	          0.30446409	          1.17178357	        -12.17934698	         -6.78936607	         11.07017105	          1.52795924	        -13.42497993	        -11.87646657	          6.70165818	          7.31941693	        -15.48840485	         -9.49684358	         12.63334412	
          0.20260019	         -8.01452035	          2.12899934	         -2.46499300	          2.00149238	          0.98449638	          0.00853304	         18.71440261	         -5.85175428	         -5.61827343	        -57.75267168	         -9.21489646	          6.45493005	         -4.04378591	         24.00091909	          3.96038244	         -7.65776919	         -6.75678270	         -4.09322491	         -0.00434446	          2.91003168	        -11.54646585	         -6.27422564	         10.45432893	         -0.46047747	        -10.25455124	        -12.65631757	          2.12961455	         14.12044900	        -16.64680110	        -11.89410869	          8.69174402	
          0.20649635	         -8.52491146	          1.41591688	         -0.80427729	          2.04063549	          0.98068111	          0.00864158	         20.80406839	         -5.24311179	         -6.51415418	        -58.99042015	         -8.90440704	          7.03816063	         -1.18540461	         22.59744007	          3.62339949	         -7.07080405	         -6.34853273	         -7.56170631	         -0.62124501	          4.37386694	        -10.82777182	         -5.73942300	          9.70742736	         -3.44507980	         -7.13138229	        -13.19962559	          0.05942013	         19.41503155	        -17.99794185	        -13.15487829	          8.66184442	
          0.21039251	         -9.06545455	          0.93342787	          1.05405982	          2.07965578	          0.97673305	          0.00815997	         22.98161843	         -5.13800111	         -7.54496410	        -60.29503236	         -7.54061975	          8.13700422	          1.12496544	         21.61088090	          3.76026116	         -4.70278569	         -8.07844113	         -2.82603188	         -0.67871353	          6.34370070	        -10.14072224	         -5.45672425	          8.62929288	         -7.58791177	         -4.05287159	        -12.58122385	          1.07331291	         23.08249661	        -19.50390691	        -12.54265662	         12.79538459	
          0.21428866	         -9.43231346	          0.84713336	          3.00184136	          2.11855437	          0.97340683	          0.00720311	         25.02929927	         -5.66828594	         -8.51878019	        -61.62918596	         -6.38453215	          9.02866209	          2.56388013	         20.37108550	          4.48024083	         -1.04280772	         -9.59985117	          0.64266255	         -2.57939142	          8.59026952	         -9.76923677	         -5.60762222	          7.29616012	        -12.99746738	         -1.13595040	        -10.51486074	          5.65242327	         25.23060731	        -21.43960024	         -9.56920125	         20.86823046	
          0.21818482	         -9.61480059	          1.01951916	          4.93138834	          2.15725500	          0.97080934	          0.00601502	         26.92377161	         -6.55500693	         -9.28318242	        -62.94240542	         -5.70146376	          9.55090191	          3.87080361	         18.82830632	          5.45594736	          2.68696456	        -10.86077836	          2.64467207	         -5.23414264	         11.14732490	         -9.74309034	         -6.01464866	          5.83508966	        -19.54821262	          1.30782438	         -7.05455670	         13.56334788	         26.47032627	        -24.25419178	         -4.56065180	         31.57825929	
          0.22208098	         -9.64311232	          1.19703464	          6.73446740	          2.19574765	          0.96876771	          0.00489484	         28.69173719	         -7.39038920	         -9.77301210	        -64.16691374	         -4.85825301	          9.93934510	          4.64940962	         17.05147384	          6.20618595	          5.73401094	        -12.01461816	          4.26684677	         -7.07180558	         13.80935646	         -9.97232034	         -6.37818125	          4.37121837	        -26.68038392	          3.04551297	         -2.99584479	         23.34700763	         27.57538760	        -27.92332639	          0.72235740	         43.41356930	
          0.22597714	         -9.60010303	          1.21993974	          8.34161159	          2.23405112	          0.96704476	          0.00400177	         30.44235053	         -7.93458016	         -9.98704494	        -65.25565014	         -3.84047952	         10.32007312	          5.22914493	         15.18782550	          6.49031288	          7.85957263	        -13.10060520	          5.80709471	         -7.69581456	         16.40837631	        -10.28325638	         -6.52204189	          2.98382113	        -33.77695173	          4.11490823	          0.99947021	         33.27330633	         29.04241736	        -31.95122015	          5.01256030	         55.16182427	
          0.22987329	         -9.58789658	          0.99871708	          9.72686707	          2.27222788	          0.96541671	          0.00336090	         32.29535473	         -8.09030934	         -9.97619013	        -66.17237432	         -2.81865279	         10.75672362	          5.67812962	         13.39603488	          6.24842621	          9.12258149	        -14.11970651	          7.20710303	         -7.36387034	         18.98818288	        -10.48945407	         -6.36407996	          1.71503845	        -40.45508432	          4.69088357	          4.64782283	         42.11664721	         30.93442769	        -35.74607272	          7.74255484	         66.12503959	
